<?xml version="1.0" encoding="UTF-8"?>
<svg width="860px" height="859px" viewBox="0 0 860 859" version="1.1" xmlns="http://www.w3.org/2000/svg" xmlns:xlink="http://www.w3.org/1999/xlink">
    <title>Web3 logo</title>
    <defs>
        <linearGradient x1="60.5239674%" y1="45.8016449%" x2="45.7256219%" y2="14.0710093%" id="linearGradient-1">
            <stop stop-color="#2F52FF" offset="0%"></stop>
            <stop stop-color="#8658FF" offset="54.7055799%"></stop>
            <stop stop-color="#E51DFF" offset="100%"></stop>
        </linearGradient>
        <linearGradient x1="40.8458449%" y1="89.5614753%" x2="60.5174173%" y2="4.56897559%" id="linearGradient-2">
            <stop stop-color="#2F52FF" offset="0%"></stop>
            <stop stop-color="#8658FF" offset="56.1426998%"></stop>
            <stop stop-color="#E51DFF" offset="100%"></stop>
        </linearGradient>
        <linearGradient x1="31.4226534%" y1="65.7622509%" x2="68.1750311%" y2="9.29276901%" id="linearGradient-3">
            <stop stop-color="#2F52FF" offset="0%"></stop>
            <stop stop-color="#8658FF" offset="54.7055799%"></stop>
            <stop stop-color="#E51DFF" offset="100%"></stop>
        </linearGradient>
        <linearGradient x1="3.89434511%" y1="65.7230493%" x2="107.997445%" y2="7.35570837%" id="linearGradient-4">
            <stop stop-color="#2F52FF" offset="0%"></stop>
            <stop stop-color="#8658FF" offset="54.7055799%"></stop>
            <stop stop-color="#E51DFF" offset="100%"></stop>
        </linearGradient>
    </defs>
    <g id="组件" stroke="none" stroke-width="1" fill="none" fill-rule="evenodd">
        <g transform="translate(-629, -29)" fill-rule="nonzero" id="Web3-logo">
            <g transform="translate(629, 29)">
                <path d="M393.312867,15.2909839 L15.253049,392.845703 C5.489246,402.561213 -5.68434189e-14,415.766722 -5.68434189e-14,429.540049 C-5.68434189e-14,443.313376 5.489246,456.518885 15.253049,466.234395 L393.312867,843.78911 C413.610749,864.0703 446.50449,864.0703 466.802373,843.78911 L625.307313,685.486919 C637.070713,673.71629 641.660378,656.564688 637.347427,640.492957 C633.034476,624.421226 620.474148,611.871043 604.397797,607.569942 C588.321446,603.26884 571.171452,607.870259 559.408052,619.640888 L439.229166,739.66759 C436.898009,742.083827 433.684649,743.44866 430.327027,743.44866 C426.969405,743.44866 423.756045,742.083827 421.424887,739.66759 L119.478364,438.148522 C117.064542,435.825747 115.700568,432.620398 115.700568,429.270668 C115.700568,425.920939 117.064542,422.715589 119.478364,420.392815 L421.424887,118.873746 C423.752724,116.451425 426.967324,115.082328 430.327027,115.082328 C433.686729,115.082328 436.90133,116.451425 439.229166,118.873746 L559.408052,238.923873 C571.167267,250.694502 588.313394,255.298153 604.387652,251.000675 C620.461911,246.703197 633.022239,234.157479 637.337283,218.089372 C641.652326,202.021265 637.066528,184.871896 625.307313,173.101267 L466.825799,14.7756459 C446.280108,-5.12400113 413.577499,-4.89475113 393.312867,15.2909839 Z" id="Shape" fill="url(#linearGradient-1)"></path>
                <path d="M393.312867,15.2909839 L15.253049,392.845703 C5.489246,402.561213 -5.68434189e-14,415.766722 -5.68434189e-14,429.540049 C-5.68434189e-14,443.313376 5.489246,456.518885 15.253049,466.234395 L393.312867,843.78911 C413.610749,864.0703 446.50449,864.0703 466.802373,843.78911 L625.307313,685.486919 C637.070713,673.71629 641.660378,656.564688 637.347427,640.492957 C633.034476,624.421226 620.474148,611.871043 604.397797,607.569942 C588.321446,603.26884 571.171452,607.870259 559.408052,619.640888 L439.229166,739.66759 C436.898009,742.083827 433.684649,743.44866 430.327027,743.44866 C426.969405,743.44866 423.756045,742.083827 421.424887,739.66759 L119.478364,438.148522 C117.064542,435.825747 115.700568,432.620398 115.700568,429.270668 C115.700568,425.920939 117.064542,422.715589 119.478364,420.392815 L421.424887,118.873746 C434.028443,108.028242 454.573644,86.0795649 484.676932,80.9027699 C507.088459,77.0611659 531.608388,85.4705309 558.236718,106.130865 L466.732093,14.7756459 C446.198059,-5.06261613 413.566344,-4.83357113 393.312867,15.2909839 Z" id="Shape-2" fill="url(#linearGradient-2)"></path>
                <path d="M661.899792,584.52769 C680.10492,602.727368 709.617353,602.727368 727.82248,584.52769 L844.76848,467.756982 C854.51932,458.039329 860,444.84 860,431.074348 C860,417.308697 854.51932,404.109367 844.76848,394.391714 L726.815132,277.011971 C708.503911,259.475629 679.53644,259.777651 661.594907,277.691973 C643.653374,295.606295 643.310162,324.570502 660.822165,342.904851 L740.472889,422.547861 C742.89413,424.871386 744.262872,428.081828 744.262872,431.437427 C744.262872,434.793025 742.89413,438.003467 740.472889,440.326992 L661.876366,518.798782 C643.741638,536.960378 643.752123,566.379024 661.899792,584.52769 Z" id="Shape-3" fill="url(#linearGradient-3)"></path>
                <ellipse id="Combined-Shape" fill="url(#linearGradient-4)" cx="431.943468" cy="431.425714" rx="102.07006" ry="101.943054"></ellipse>
            </g>
        </g>
    </g>
</svg>