<?xml version="1.0" encoding="UTF-8"?>
<!DOCTYPE svg PUBLIC "-//W3C//DTD SVG 1.1//EN" "http://www.w3.org/Graphics/SVG/1.1/DTD/svg11.dtd">
<svg xmlns="http://www.w3.org/2000/svg" version="1.1" width="500px" height="500px" style="shape-rendering:geometricPrecision; text-rendering:geometricPrecision; image-rendering:optimizeQuality; fill-rule:evenodd; clip-rule:evenodd" xmlns:xlink="http://www.w3.org/1999/xlink">
<!-- 定义滤镜和渐变 -->
<defs>
    <linearGradient id="techGradient" x1="0%" y1="0%" x2="100%" y2="100%">
        <stop offset="0%" style="stop-color:#2563eb"/>
        <stop offset="100%" style="stop-color:#9333ea"/>
    </linearGradient>
    
    <!-- 添加水彩效果滤镜 -->
    <filter id="watercolor" x="-50%" y="-50%" width="200%" height="200%">
        <feTurbulence type="fractalNoise" baseFrequency="0.01" numOctaves="3" result="noise"/>
        <feDisplacementMap in="SourceGraphic" in2="noise" scale="20" xChannelSelector="R" yChannelSelector="G"/>
        <feGaussianBlur stdDeviation="3" result="blur"/>
        <feBlend mode="multiply" in="blur" in2="SourceGraphic"/>
    </filter>
</defs>

<!-- 使用圆角矩形背景替代圆形 -->
<rect x="0" y="0" width="500" height="500" rx="100" ry="100" fill="url(#techGradient)"/>

<!-- 调整图标位置到中心并向上移动，图标改为白色 -->
<g transform="translate(120,80) scale(0.7)" filter="url(#watercolor)">
  <path style="opacity:0.9" fill="#ffffff" d="M 16.5,30.5 C 125.833,30.5 235.167,30.5 344.5,30.5C 344.5,62.1667 344.5,93.8333 344.5,125.5C 235.167,125.5 125.833,125.5 16.5,125.5C 16.5,93.8333 16.5,62.1667 16.5,30.5 Z"/>
  <path style="opacity:0.9" fill="#ffffff" d="M 16.5,241.5 C 125.833,241.5 235.167,241.5 344.5,241.5C 344.5,273.167 344.5,304.833 344.5,336.5C 268.5,336.5 192.5,336.5 116.5,336.5C 116.5,401.167 116.5,465.833 116.5,530.5C 83.1667,530.5 49.8333,530.5 16.5,530.5C 16.5,434.167 16.5,337.833 16.5,241.5 Z"/>
</g>
</svg>