<svg width="192" height="21" viewBox="0 0 192 21" fill="none" xmlns="http://www.w3.org/2000/svg">
<path d="M18.862 2.39991C20.1254 3.66334 20.1254 5.71123 18.862 6.9734L6.28303 19.5524C5.0196 20.8158 2.97171 20.8158 1.70954 19.5524C0.446105 18.289 0.446105 16.2411 1.70954 14.9789L14.2873 2.39991C15.5507 1.13648 17.5986 1.13648 18.8608 2.39991H18.862Z" fill="url(#paint0_linear_919_47)"/>
<path d="M29.0828 1.45238C30.8822 1.45238 32.3409 2.9097 32.3409 4.70731V17.2451C32.3409 19.0427 30.8822 20.5 29.0828 20.5C27.2834 20.5 25.8246 19.0427 25.8246 17.2451V4.70731C25.8246 2.9097 27.2834 1.45238 29.0828 1.45238Z" fill="url(#paint1_linear_919_47)"/>
<path d="M31.3933 2.39995C32.6567 3.66338 32.6567 5.71127 31.3933 6.97344L18.8143 19.5524C17.5509 20.8159 15.503 20.8159 14.2408 19.5524C12.9774 18.289 12.9774 16.2411 14.2408 14.9789L26.8198 2.39995C28.0833 1.13652 30.1311 1.13652 31.3933 2.39995Z" fill="url(#paint2_linear_919_47)"/>
<path d="M30.7113 14.4205C32.2701 15.3195 32.8032 17.3127 31.9041 18.8703C31.0051 20.4291 29.0119 20.9622 27.4543 20.0632C25.8955 19.1641 25.3624 17.1709 26.2614 15.6133C27.1605 14.0545 29.1537 13.5214 30.7113 14.4205Z" fill="#0066FF"/>
<path fill-rule="evenodd" clip-rule="evenodd" d="M62.3303 0.880951H59.678L59.0718 2.64037H59.042L58.431 4.49992L58.178 5.23413L60.8267 5.23406H72.7935V13.6832H72.7918V14.3948H71.6566V16.8627L72.7918 16.8628H75.3854V14.8506C75.3866 14.8223 75.3872 14.7938 75.3872 14.7652V4.73789C75.3872 3.57934 74.4482 2.64037 73.2896 2.64037H61.7232L62.3303 0.880951ZM55.3805 1.34005H37.6288V3.93374H55.3805V1.34005ZM52.2675 4.79378H51.0982L51.0998 4.79545H38.6442V4.79713H38.6425V13.2306H54.365L54.365 6.8913C54.365 5.73275 53.4261 4.79378 52.2675 4.79378ZM70.966 6.33056H58.5045V18.3825C58.5045 19.553 59.4538 20.5 60.622 20.5H75.4388V17.9063H61.0982V15.4329H70.966L70.966 12.8392L70.966 8.92425V6.33056ZM41.2362 10.6369V7.38913H51.7713V10.6369H41.2362ZM61.0982 12.8392V8.92425H68.3723V12.8392H61.0982ZM42.3478 13.9935H39.7022L40.9902 17.9062H37.6288V20.4999H55.3805V17.9062H52.0197L53.3051 13.9935H50.6596L49.3743 17.9062H43.6358L42.3478 13.9935Z" fill="#1A1C20"/>
<path d="M185.423 20.3751C184.108 20.3751 182.973 20.102 182.017 19.5556C181.066 19.0036 180.335 18.2239 179.823 17.2166C179.311 16.2035 179.055 15.0112 179.055 13.6397C179.055 12.2909 179.311 11.1071 179.823 10.0884C180.341 9.06396 181.064 8.2672 181.991 7.69808C182.919 7.12327 184.009 6.83587 185.261 6.83587C186.069 6.83587 186.832 6.96677 187.549 7.22856C188.271 7.48466 188.909 7.88304 189.461 8.4237C190.019 8.96436 190.457 9.65299 190.776 10.4896C191.094 11.3205 191.254 12.3108 191.254 13.4604V14.408H180.506V12.325H188.291C188.286 11.7331 188.158 11.2067 187.907 10.7457C187.657 10.279 187.307 9.91194 186.857 9.64446C186.413 9.37697 185.895 9.24323 185.304 9.24323C184.672 9.24323 184.117 9.39689 183.639 9.70422C183.161 10.0058 182.788 10.4042 182.521 10.8994C182.259 11.3888 182.125 11.9266 182.119 12.5128V14.3311C182.119 15.0937 182.259 15.7482 182.538 16.2946C182.816 16.8352 183.206 17.2507 183.707 17.5409C184.208 17.8255 184.794 17.9678 185.466 17.9678C185.915 17.9678 186.322 17.9052 186.686 17.78C187.051 17.6491 187.367 17.4584 187.634 17.208C187.902 16.9576 188.104 16.6474 188.24 16.2775L191.126 16.6019C190.943 17.3645 190.596 18.0304 190.084 18.5995C189.578 19.1629 188.929 19.6012 188.138 19.9142C187.347 20.2215 186.442 20.3751 185.423 20.3751Z" fill="#1A1C20"/>
<path d="M170.303 20.3495C169.273 20.3495 168.351 20.0849 167.538 19.5556C166.724 19.0263 166.081 18.258 165.608 17.2507C165.136 16.2434 164.9 15.0198 164.9 13.5799C164.9 12.123 165.139 10.8937 165.617 9.89202C166.101 8.88469 166.752 8.12492 167.572 7.61271C168.391 7.09482 169.305 6.83587 170.312 6.83587C171.08 6.83587 171.712 6.96676 172.207 7.22856C172.702 7.48466 173.095 7.79483 173.385 8.15906C173.675 8.51761 173.9 8.85623 174.06 9.17494H174.188V2.63579H177.287V20.119H174.247V18.0532H174.06C173.9 18.3719 173.67 18.7105 173.368 19.069C173.067 19.4219 172.668 19.7235 172.173 19.9739C171.678 20.2243 171.055 20.3495 170.303 20.3495ZM171.166 17.8141C171.82 17.8141 172.378 17.6377 172.839 17.2848C173.3 16.9263 173.65 16.4283 173.889 15.7909C174.128 15.1535 174.247 14.4108 174.247 13.5628C174.247 12.7148 174.128 11.9778 173.889 11.3518C173.656 10.7258 173.308 10.2392 172.847 9.89202C172.392 9.54486 171.832 9.37128 171.166 9.37128C170.477 9.37128 169.902 9.55055 169.441 9.9091C168.98 10.2676 168.633 10.7628 168.4 11.3945C168.166 12.0262 168.05 12.749 168.05 13.5628C168.05 14.3824 168.166 15.1137 168.4 15.7568C168.639 16.3942 168.989 16.8978 169.45 17.2678C169.916 17.632 170.488 17.8141 171.166 17.8141Z" fill="#1A1C20"/>
<path d="M157.493 20.3751C156.213 20.3751 155.103 20.0934 154.164 19.53C153.225 18.9666 152.496 18.1784 151.978 17.1653C151.466 16.1523 151.21 14.9685 151.21 13.614C151.21 12.2595 151.466 11.0729 151.978 10.0542C152.496 9.0355 153.225 8.24443 154.164 7.68101C155.103 7.11758 156.213 6.83587 157.493 6.83587C158.774 6.83587 159.883 7.11758 160.822 7.68101C161.762 8.24443 162.487 9.0355 162.999 10.0542C163.517 11.0729 163.776 12.2595 163.776 13.614C163.776 14.9685 163.517 16.1523 162.999 17.1653C162.487 18.1784 161.762 18.9666 160.822 19.53C159.883 20.0934 158.774 20.3751 157.493 20.3751ZM157.51 17.8995C158.205 17.8995 158.785 17.7088 159.252 17.3275C159.718 16.9405 160.066 16.4226 160.293 15.7738C160.527 15.125 160.643 14.4023 160.643 13.6055C160.643 12.8031 160.527 12.0774 160.293 11.4286C160.066 10.7742 159.718 10.2534 159.252 9.86641C158.785 9.47941 158.205 9.28592 157.51 9.28592C156.799 9.28592 156.207 9.47941 155.735 9.86641C155.268 10.2534 154.918 10.7742 154.685 11.4286C154.457 12.0774 154.343 12.8031 154.343 13.6055C154.343 14.4023 154.457 15.125 154.685 15.7738C154.918 16.4226 155.268 16.9405 155.735 17.3275C156.207 17.7088 156.799 17.8995 157.51 17.8995Z" fill="#1A1C20"/>
<path d="M149.976 8.79757H146.856C146.767 8.28586 146.603 7.83256 146.364 7.43766C146.125 7.03719 145.827 6.69791 145.471 6.41981C145.115 6.14171 144.709 5.93313 144.253 5.79408C143.802 5.64947 143.316 5.57716 142.793 5.57716C141.864 5.57716 141.041 5.81077 140.323 6.27797C139.606 6.73962 139.044 7.41819 138.638 8.31367C138.232 9.2036 138.029 10.291 138.029 11.5758C138.029 12.8829 138.232 13.9841 138.638 14.8796C139.05 15.7696 139.611 16.4426 140.323 16.8986C141.041 17.3492 141.861 17.5744 142.785 17.5744C143.296 17.5744 143.775 17.5077 144.22 17.3742C144.67 17.2351 145.073 17.0321 145.429 16.7652C145.791 16.4982 146.094 16.17 146.339 15.7807C146.589 15.3913 146.761 14.9464 146.856 14.4458L149.976 14.4625C149.859 15.2745 149.606 16.0365 149.217 16.7485C148.833 17.4604 148.33 18.0889 147.707 18.634C147.084 19.1735 146.355 19.5962 145.521 19.9021C144.687 20.2025 143.761 20.3527 142.743 20.3527C141.241 20.3527 139.901 20.005 138.721 19.3098C137.542 18.6145 136.613 17.6106 135.935 16.2979C135.256 14.9853 134.917 13.4113 134.917 11.5758C134.917 9.73477 135.259 8.16072 135.943 6.85364C136.627 5.54101 137.559 4.53706 138.738 3.84181C139.917 3.14656 141.252 2.79893 142.743 2.79893C143.694 2.79893 144.578 2.93242 145.396 3.1994C146.214 3.46638 146.942 3.8585 147.582 4.37577C148.221 4.88747 148.747 5.51598 149.159 6.26129C149.576 7.00104 149.848 7.84646 149.976 8.79757Z" fill="#1A1C20"/>
<path d="M133.145 10.4725L130.328 10.7798C130.248 10.4953 130.108 10.2278 129.909 9.97739C129.716 9.72698 129.454 9.52494 129.124 9.37128C128.794 9.21762 128.39 9.14079 127.912 9.14079C127.269 9.14079 126.728 9.28022 126.29 9.55909C125.857 9.83796 125.644 10.1993 125.649 10.6433C125.644 11.0246 125.783 11.3347 126.068 11.5738C126.358 11.8128 126.836 12.0091 127.502 12.1628L129.739 12.6409C130.979 12.9083 131.901 13.3323 132.504 13.9128C133.113 14.4933 133.421 15.2531 133.426 16.1921C133.421 17.0174 133.179 17.7458 132.701 18.3776C132.228 19.0036 131.571 19.493 130.729 19.8459C129.886 20.1987 128.919 20.3751 127.826 20.3751C126.221 20.3751 124.929 20.0394 123.951 19.3678C122.972 18.6906 122.388 17.7487 122.201 16.5421L125.214 16.2519C125.351 16.8438 125.641 17.2905 126.085 17.5922C126.529 17.8938 127.106 18.0446 127.818 18.0446C128.552 18.0446 129.141 17.8938 129.585 17.5922C130.034 17.2905 130.259 16.9178 130.259 16.4739C130.259 16.0982 130.114 15.7881 129.824 15.5434C129.539 15.2986 129.095 15.1108 128.492 14.9799L126.256 14.5104C124.998 14.2486 124.067 13.8075 123.464 13.1872C122.861 12.5612 122.562 11.7701 122.568 10.814C122.562 10.0058 122.781 9.30583 123.225 8.71395C123.675 8.11638 124.298 7.6554 125.095 7.331C125.897 7.00091 126.822 6.83587 127.869 6.83587C129.406 6.83587 130.615 7.16311 131.497 7.81759C132.385 8.47208 132.934 9.35705 133.145 10.4725Z" fill="#1A1C20"/>
<path d="M113.971 20.119V7.0066H116.967V9.19201H117.104C117.343 8.43509 117.753 7.85174 118.333 7.44198C118.919 7.02652 119.588 6.81879 120.339 6.81879C120.51 6.81879 120.701 6.82733 120.911 6.8444C121.128 6.85579 121.307 6.87571 121.449 6.90416V9.7469C121.318 9.70137 121.111 9.66153 120.826 9.62738C120.547 9.58755 120.277 9.56763 120.015 9.56763C119.452 9.56763 118.945 9.68999 118.495 9.93471C118.052 10.1737 117.702 10.5067 117.445 10.9335C117.189 11.3603 117.061 11.8526 117.061 12.4104V20.119H113.971Z" fill="#1A1C20"/>
<path d="M104.541 20.3837C103.71 20.3837 102.962 20.2357 102.296 19.9398C101.636 19.6381 101.112 19.1942 100.725 18.608C100.344 18.0219 100.153 17.2991 100.153 16.4397C100.153 15.6999 100.29 15.0881 100.563 14.6043C100.836 14.1206 101.209 13.7336 101.682 13.4433C102.154 13.1531 102.686 12.934 103.278 12.786C103.875 12.6323 104.493 12.5213 105.13 12.453C105.899 12.3734 106.522 12.3022 107 12.2396C107.478 12.1713 107.825 12.0689 108.041 11.9323C108.263 11.79 108.374 11.5709 108.374 11.275V11.2238C108.374 10.5807 108.184 10.0827 107.802 9.72983C107.421 9.37697 106.872 9.20055 106.155 9.20055C105.398 9.20055 104.797 9.36559 104.354 9.69568C103.915 10.0258 103.619 10.4156 103.466 10.8652L100.58 10.4554C100.808 9.65869 101.184 8.99282 101.707 8.45785C102.231 7.91719 102.871 7.51312 103.628 7.24563C104.385 6.97246 105.221 6.83587 106.138 6.83587C106.769 6.83587 107.398 6.90985 108.024 7.05782C108.65 7.20579 109.222 7.45051 109.74 7.79198C110.258 8.12776 110.674 8.5859 110.987 9.1664C111.305 9.7469 111.465 10.4725 111.465 11.3433V20.119H108.494V18.3178H108.391C108.204 18.682 107.939 19.0235 107.597 19.3422C107.262 19.6552 106.838 19.9085 106.326 20.102C105.819 20.2898 105.224 20.3837 104.541 20.3837ZM105.344 18.1129C105.964 18.1129 106.502 17.9906 106.957 17.7458C107.413 17.4954 107.763 17.1653 108.007 16.7556C108.258 16.3458 108.383 15.899 108.383 15.4153V13.8701C108.286 13.9498 108.121 14.0238 107.888 14.0921C107.66 14.1604 107.404 14.2202 107.119 14.2714C106.835 14.3226 106.553 14.3681 106.274 14.408C105.995 14.4478 105.754 14.4819 105.549 14.5104C105.088 14.573 104.675 14.6754 104.311 14.8177C103.947 14.96 103.659 15.1592 103.449 15.4153C103.238 15.6657 103.133 15.9901 103.133 16.3885C103.133 16.9576 103.34 17.3873 103.756 17.6775C104.171 17.9678 104.701 18.1129 105.344 18.1129Z" fill="#1A1C20"/>
<path d="M80.1615 3.03254H83.9492L89.0218 15.4136H89.222L94.2946 3.03254H98.0823V20.119H95.1122V8.38042H94.9537L90.2315 20.069H88.0123L83.2901 8.35539H83.1316V20.119H80.1615V3.03254Z" fill="#1A1C20"/>
<defs>
<linearGradient id="paint0_linear_919_47" x1="18.8626" y1="2.4005" x2="1.70969" y2="19.5534" gradientUnits="userSpaceOnUse">
<stop stop-color="#992AFC"/>
<stop offset="0.32" stop-color="#6255FE"/>
<stop offset="1" stop-color="#0066FF"/>
</linearGradient>
<linearGradient id="paint1_linear_919_47" x1="29.0828" y1="1.45238" x2="29.0828" y2="20.4987" gradientUnits="userSpaceOnUse">
<stop stop-color="#0066FF" stop-opacity="0.6"/>
<stop offset="1" stop-color="#0066FF" stop-opacity="0.15"/>
</linearGradient>
<linearGradient id="paint2_linear_919_47" x1="31.3932" y1="2.39906" x2="14.2403" y2="19.552" gradientUnits="userSpaceOnUse">
<stop stop-color="#F57638"/>
<stop offset="0.282909" stop-color="#6D66FF"/>
<stop offset="0.87" stop-color="#1064FF"/>
</linearGradient>
</defs>
</svg>
