<?xml version="1.0" encoding="UTF-8"?>
<svg width="210px" height="80px" viewBox="0 0 210 80" version="1.1" xmlns="http://www.w3.org/2000/svg" xmlns:xlink="http://www.w3.org/1999/xlink">
    <title>logo1</title>
    <g id="页面-1" stroke="none" stroke-width="1" fill="none" fill-rule="evenodd" opacity="0.9">
        <g id="滑动" transform="translate(-123, 0)" fill="#17181A">
            <g id="logo1" transform="translate(123, 0)">
                <rect id="矩形" opacity="0" x="0" y="0" width="210" height="80"></rect>
                <g id="编组-2备份-3" transform="translate(139, 32.4773)">
                    <path d="M9.03714085,16.9577049 L9.68265091,13.5675703 L4.43788167,13.5675703 L5.16408049,9.93528333 L9.92471719,9.93528333 L10.5702272,6.5451488 L5.80959055,6.5451488 L6.37441185,3.39716673 L11.2964261,3.39716673 L11.9419361,0.00703220546 L3.14686155,0.00703220546 L0,16.8769874 L9.03714085,16.9577049 Z M11.2157373,16.9577049 L14.6853539,16.9577049 L16.5411953,6.94873624 L17.9935929,6.94873624 L18.4777255,4.3657766 L17.0253279,4.3657766 L17.2673941,3.07429678 C17.3480829,2.75142682 17.6708379,2.67070934 18.0742817,2.67070934 L18.8004805,2.67070934 L19.2846131,0.0877496943 L17.7515267,0.0877496943 C15.4922415,0.0877496943 14.2012213,0.894924582 13.7170888,3.31644925 L13.4750225,4.44649409 L12.1033136,4.44649409 L11.6191811,7.02945373 L12.99089,7.02945373 L11.2157373,16.9577049 Z M17.9129042,16.9577049 L21.3825208,16.9577049 L23.2383622,6.94873624 L24.6907598,6.94873624 L25.1748924,4.3657766 L23.7224947,4.3657766 L23.964561,3.07429678 C24.0452498,2.75142682 24.3680048,2.67070934 24.7714486,2.67070934 L25.4976474,2.67070934 L25.98178,0.0877496943 L24.4486936,0.0877496943 C22.1894083,0.0877496943 20.8983882,0.894924582 20.4142557,3.31644925 L20.1721894,4.44649409 L18.8004805,4.44649409 L18.316348,7.02945373 L19.6880569,7.02945373 L17.9129042,16.9577049 Z M28.644509,8.88595597 L28.8058865,8.07878108 C28.967264,7.19088871 29.3707078,6.38371382 30.3389729,6.38371382 C31.2265492,6.38371382 31.3879267,7.19088871 31.307238,7.67519364 L31.0651717,8.88595597 L28.644509,8.88595597 Z M34.0506557,11.3074806 L34.6961658,7.67519364 C35.1802983,4.93079902 33.1630794,4.04290664 30.7424167,4.04290664 C28.0796876,4.04290664 25.9010912,5.092234 25.2555811,8.40165104 L24.287316,13.5675703 C23.7224947,16.4733999 25.7397137,17.5227273 28.2410652,17.5227273 C31.2265492,17.4420098 33.2437681,15.989095 33.6472119,12.7603954 L30.1775953,12.7603954 C29.9355291,13.8097228 29.8548403,15.0204851 28.5638202,14.9397676 C27.8376214,14.8590501 27.5955551,14.2940277 27.7569326,13.6482878 L28.1603764,11.4689156 L34.0506557,11.3074806 Z M44.620883,9.04739095 C45.5084593,5.57653893 44.3788167,4.04290664 40.9898889,3.96218916 C38.3271599,3.96218916 36.4713184,5.01151651 35.9064971,8.32093355 L34.938232,13.4868528 C34.3734107,16.3926824 35.9871859,17.4420098 38.4885374,17.4420098 C38.9726699,17.4420098 39.295425,17.3612923 39.61818,17.3612923 C41.1512664,17.1998573 42.603664,16.4733999 43.3298628,14.9397676 C43.6526179,14.2940277 44.0560617,12.6796779 44.2174392,11.9532205 L40.8285114,11.9532205 C40.6671338,12.9218304 40.5057563,14.8590501 39.2147362,14.8590501 C38.3271599,14.8590501 38.2464711,14.2133102 38.4078486,13.4061353 L39.3761137,8.24021606 C39.5374912,7.43304117 39.7795575,6.70658377 40.7478226,6.70658377 C41.3126439,6.70658377 41.4740214,6.94873624 41.5547102,7.51375866 C41.5547102,7.9980636 41.4740214,8.48236853 41.3933327,8.96667346 L41.3933327,9.20882593 L44.620883,9.04739095 Z M47.0415457,6.94873624 L45.6698368,14.2133102 C45.3470818,16.15053 46.1539694,17.1191398 48.0098108,17.1191398 C48.7360096,17.1191398 49.5428972,17.0384223 50.269096,16.9577049 L50.7532285,14.4554627 C50.4304735,14.4554627 50.1884072,14.4554627 49.8656522,14.5361802 C49.3815197,14.5361802 49.1394534,14.3747452 49.3008309,13.6482878 L50.591851,7.02945373 L52.2863149,7.02945373 L52.7704475,4.44649409 L51.0759836,4.44649409 L51.7214936,0.814207093 L48.2518771,0.814207093 L47.606367,4.44649409 L46.2346581,4.44649409 L45.7505256,7.02945373 L47.0415457,6.94873624 Z M61.1620783,8.15949857 C61.8075883,5.33438647 60.0324357,4.04290664 57.5310842,4.04290664 C55.1104215,4.04290664 52.7704475,5.17295149 52.2863149,7.91734611 C52.1249374,8.72452099 52.2863149,9.61241337 52.6897587,10.2581533 C53.5773351,11.5496331 55.3524877,12.1146555 56.6435078,12.8411129 C56.8855741,13.0832654 56.9662629,13.4868528 56.8855741,13.8097228 C56.7241966,14.6168977 56.1593753,15.0204851 55.4331765,15.0204851 C54.3842226,15.0204851 54.3035339,13.9711578 54.5456001,13.1639829 L51.2373611,13.1639829 C50.5111623,16.2312475 52.2056262,17.4420098 54.9490439,17.4420098 C57.5310842,17.4420098 59.7903694,16.2312475 60.3551907,13.4061353 C60.920012,10.4195883 58.580038,9.77384835 56.5628191,8.72452099 C56.0786865,8.48236853 55.594554,8.07878108 55.7559315,7.43304117 C55.917309,6.70658377 56.4014416,6.38371382 57.1276404,6.38371382 C58.257283,6.38371382 58.0152167,7.2716062 57.934528,8.07878108 L61.1620783,8.15949857 Z" id="Galacean_Effects"></path>
                </g>
                <polygon id="直线备份-2" fill-rule="nonzero" opacity="0.86186756" points="128 32 128 50 129.4 50 129.4 32"></polygon>
                <g id="编组" transform="translate(0, 22)">
                    <path d="M18.8881019,10.4878048 C19.0009715,11.0120558 18.6620232,11.5275888 18.1312815,11.6390781 C17.60037,11.7505673 17.0786238,11.4157643 16.9657542,10.8915133 C16.8528846,10.3670947 17.1918329,9.85172932 17.7225746,9.74024007 C18.2534861,9.62875081 18.7752323,9.96355388 18.8881019,10.4878048" id="Fill-1"></path>
                    <path d="M20.7280124,8.68717797 C20.2043992,6.25386215 17.7828793,4.700557 15.3194363,5.21776654 C12.8559934,5.73497608 11.2832869,8.1268816 11.8069,10.5601974 C12.3305132,12.9935132 14.7522029,14.5468184 17.2156458,14.0296088 C19.6790888,13.5123993 21.2516255,11.1204938 20.7280124,8.68717797 M0.293860074,18.9649782 C-1.23590507,11.8558199 3.35831249,4.86804235 10.5551506,3.35698576 C10.8131383,3.30266618 11.0709562,3.25723221 11.328265,3.21850437 L10.6961951,0.281055945 C17.7217769,-1.19395525 24.6385626,3.28573323 26.131836,10.225562 C26.3675893,11.3210068 26.4539812,12.4136015 26.4054388,13.4825571 L26.3565569,13.4927839 L26.2345219,13.5184348 L4.7118992,18.0373541 L3.90500877,18.2118809 C4.79947923,22.3688373 8.93661729,25.0227845 13.1452112,24.1390855 C14.2939353,23.8980004 15.3287714,23.4176746 16.2088149,22.7631572 L16.517212,23.4512052 C16.6501097,23.7477833 17.0693396,23.7652193 17.2268479,23.4805444 L17.6124716,22.7836109 C17.6749318,22.6706127 17.7896684,22.5953365 17.9193412,22.5822596 L18.7192727,22.5009479 C19.0456611,22.4675849 19.1919673,22.0791329 18.9667372,21.8434128 L18.4147794,21.2656805 C18.3253323,21.1721301 18.2883315,21.0410255 18.3156578,20.9151181 L18.4845379,20.1385493 C18.5534478,19.8215175 18.2245135,19.5641701 17.9279973,19.7028191 L17.2012189,20.0428194 C17.0834271,20.0979773 16.9457771,20.0921094 16.8330772,20.0277307 L16.1375289,19.6290518 C15.8537424,19.4662607 15.5041012,19.6957777 15.5460242,20.0171685 C15.5460242,20.0171685 15.6476917,20.7965874 15.6488798,20.80497 C14.0021716,21.0530965 12.8013407,19.8102847 12.7309033,18.5869207 L19.9173879,17.0778759 C21.8047715,16.6817118 23.0638193,18.3775221 22.561592,19.8376121 C21.3483709,23.5903572 18.5553148,26.6867406 13.9274909,27.7253511 C7.74393343,29.113015 1.61316158,25.0963842 0.294878447,18.9696725" id="Fill-3"></path>
                    <path d="M31.5780579,25.043322 C32.3603377,25.043322 33.4606891,24.825876 34.1694763,23.6910328 L34.1694763,18.2815407 C33.4606891,17.1466975 32.3847786,16.9535612 31.5780579,16.9535612 C29.8422421,16.9535612 28.3510054,18.740407 28.3510054,21.0104288 C28.3510054,23.2321665 29.8422421,25.043322 31.5780579,25.043322 M24.6103537,21.0104288 C24.6103537,16.9535612 27.0062446,14.152247 30.6245219,14.152247 C31.7248733,14.152247 32.8983778,14.5868036 33.8761851,15.2872579 L33.8761851,14.4660935 L37.7879234,14.4660935 L37.7879234,24.4637455 C37.7879234,25.7677507 37.9588402,26.7820514 38.2767421,27.50648 L34.609583,27.50648 C34.4873783,27.2892017 34.3894448,26.9993297 34.3162917,26.6371992 C33.3138738,27.4340539 32.1159283,27.8203265 30.7224553,27.8203265 C27.0797371,27.8203265 24.6103537,25.1641998 24.6103537,21.0104288" id="Fill-5"></path>
                    <path d="M44.6812355,27.6997504 C41.7474742,27.6997504 40.2316269,26.0575892 40.2316269,22.8941445 L40.2316269,8.93602533 L44.1433652,8.93602533 L44.1433652,21.9281278 C44.1433652,23.2079909 44.3144517,23.8118771 44.779169,24.1740076 C44.9500859,24.3188598 45.170224,24.4154279 45.3901925,24.43957 C45.6103307,24.4880217 45.9769447,24.5119961 46.5390863,24.5119961 L46.5390863,27.6997504 L44.6812355,27.6997504 Z" id="Fill-7"></path>
                    <path d="M54.4842245,25.043322 C55.2665042,25.043322 56.3666859,24.825876 57.0758126,23.6910328 L57.0758126,18.2815407 C56.3666859,17.1466975 55.2909452,16.9535612 54.4842245,16.9535612 C52.7485784,16.9535612 51.2571719,18.740407 51.2571719,21.0104288 C51.2571719,23.2321665 52.7485784,25.043322 54.4842245,25.043322 M47.5166899,21.0104288 C47.5166899,16.9535612 49.9125808,14.152247 53.5308581,14.152247 C54.6308701,14.152247 55.8043746,14.5868036 56.7823516,15.2872579 L56.7823516,14.4660935 L60.6939202,14.4660935 L60.6939202,24.4637455 C60.6939202,25.7677507 60.8651765,26.7820514 61.1830784,27.50648 L57.5157495,27.50648 C57.3935448,27.2892017 57.2957811,26.9993297 57.2222885,26.6371992 C56.2200403,27.4340539 55.0220949,27.8203265 53.6286219,27.8203265 C49.9859037,27.8203265 47.5166899,25.1641998 47.5166899,21.0104288" id="Fill-9"></path>
                    <path d="M74.1396953,27.0718564 C72.8926982,27.5788391 71.596989,27.8204271 70.2768389,27.8204271 C65.802959,27.8204271 62.6492292,24.9709965 62.6492292,21.0829555 C62.6492292,16.9776362 65.6563133,14.176322 70.1057523,14.176322 C71.3770206,14.176322 72.6727298,14.3936003 73.9686087,14.8524666 L73.9686087,17.822775 C72.9661908,17.4123604 71.9637728,17.1949145 70.912473,17.1949145 C68.3454955,17.1949145 66.4385931,18.3057833 66.4385931,21.0829555 C66.4385931,23.3528096 68.4677002,24.7535505 71.0348474,24.7535505 C72.2327929,24.7535505 73.3818564,24.39142 74.1396953,23.7875339 L74.1396953,27.0718564 Z" id="Fill-11"></path>
                    <path d="M85.2874281,19.2475071 C84.8719321,17.6296555 83.7715807,16.8810848 82.3047849,16.8810848 C80.9357529,16.8810848 79.9333349,17.701914 79.5421102,19.2475071 L85.2874281,19.2475071 Z M88.0989846,26.8063108 C86.8521573,27.5548815 85.0919005,27.8928699 83.5514425,27.8928699 C78.3443344,27.8928699 75.6061007,25.3331438 75.6061007,20.9138104 C75.6061007,16.5429287 78.1732479,14.1280547 82.3047849,14.1280547 C86.4120507,14.1280547 88.9790282,16.5429287 88.9790282,20.9138104 C88.9790282,21.1553984 88.9545872,21.4933868 88.930316,21.9522531 L79.4199055,21.9522531 C79.7866893,24.0291386 81.1557213,25.0675814 83.5514425,25.0675814 C85.2385462,25.0675814 86.7543936,24.5845731 88.0989846,23.5944144 L88.0989846,26.8063108 Z" id="Fill-13"></path>
                    <path d="M97.4127475,25.043322 C98.1950272,25.043322 99.2953787,24.825876 100.004505,23.6910328 L100.004505,18.2815407 C99.2953787,17.1466975 98.2198076,16.9535612 97.4127475,16.9535612 C95.6769316,16.9535612 94.1856949,18.740407 94.1856949,21.0104288 C94.1856949,23.2321665 95.6769316,25.043322 97.4127475,25.043322 M90.4452129,21.0104288 C90.4452129,16.9535612 92.8411038,14.152247 96.4593811,14.152247 C97.5595628,14.152247 98.7330673,14.5868036 99.7108746,15.2872579 L99.7108746,14.4660935 L103.622613,14.4660935 L103.622613,24.4637455 C103.622613,25.7677507 103.793869,26.7820514 104.111771,27.50648 L100.444442,27.50648 C100.322238,27.2892017 100.224304,26.9993297 100.150981,26.6371992 C99.148733,27.4340539 97.9507876,27.8203265 96.5571449,27.8203265 C92.9144266,27.8203265 90.4452129,25.1641998 90.4452129,21.0104288" id="Fill-15"></path>
                    <path d="M109.977987,14.4178262 L109.977987,15.9875613 C111.176102,14.9491186 112.814154,14.3454001 114.354273,14.3454001 C116.872199,14.3454001 118.461538,15.9392772 118.461538,18.2574154 L118.461538,27.4582127 L114.54997,27.4582127 L114.54997,18.9095857 C114.54997,17.967711 113.645146,17.3157085 112.569575,17.3157085 C111.884889,17.3157085 110.687113,17.8228588 109.977987,18.4746937 L109.977987,27.4582127 L106.066418,27.4582127 L106.066418,14.4178262 L109.977987,14.4178262 Z" id="Fill-17"></path>
                </g>
            </g>
        </g>
    </g>
</svg>