<svg width="130" height="30" viewBox="0 0 130 30" fill="none" xmlns="http://www.w3.org/2000/svg">
<path fill-rule="evenodd" clip-rule="evenodd" d="M28.0369 0H29.3391V1.1703L30.5469 1.17026V2.39368L29.3391 2.39373V4.77362H28.0369V2.39378L25.6646 2.39387V1.17044L28.0366 1.17035V1.17026H28.0369V0ZM3.52002 15.6232V2.36038H4.74414V15.6232H3.52002ZM16.6832 16.4561H30.511V17.6163H22.6713L22.6713 29.712H16.6831L16.6832 16.4561ZM7.34709 4.20913V19.8125H0.238281L0.238475 25.5082H13.354L13.3538 10.1044L26.5805 10.1025L26.5766 4.20722L7.34709 4.20913Z" fill="url(#paint0_linear_6728_3560)"/>
<g clip-path="url(#clip0_6728_3560)">
<path d="M77.3013 18.3936L77.4658 18.0249L77.642 18.3878C78.958 21.0931 80.8379 23.4182 83.2309 25.2979L84.537 23.6601C83.1486 22.583 81.9267 21.2793 80.9025 19.7836C79.9253 18.359 79.1597 16.8268 78.629 15.2294L78.5487 14.9894H84.1747V12.9023H78.4547V7.76055L78.6251 7.74519C80.4737 7.58583 82.0775 7.33431 83.3934 6.99639L82.7393 5.00342C81.5115 5.30486 80.2191 5.51606 78.8992 5.6351C77.5735 5.75414 76.0754 5.82326 74.4462 5.83862H72.065V7.90263H74.4442C74.8359 7.90263 75.4116 7.88919 76.1538 7.86231L76.3476 7.85463V12.9023H70.9194V5.2895H62.8984V12.9849H66.247V21.7075L65.0035 21.9609V15.3964H62.8984V22.3872L62.1602 22.5369L62.5871 24.5587L70.892 22.871L70.4651 20.8493L68.3521 21.2793V17.639H71.1015V15.575H68.3521V12.9849H71.1152V14.9894H76.1812L76.1361 15.2083C75.6035 17.7926 73.988 20.4499 71.3267 23.1225L71.3345 23.1552L71.2856 23.1648C70.9468 23.5046 70.5904 23.8445 70.2183 24.1843L71.5969 25.7741C74.2993 23.3203 76.2164 20.8358 77.2993 18.3936H77.3013ZM68.8064 10.8748H65.0211V7.35543H68.8064V10.8748Z" fill="black"/>
<path d="M89.4803 20.6081L90.1872 17.4996H96.6867V19.2545H91.6011L91.1311 21.3415H96.6867V23.6378H87.5456V25.7019H107.954V23.6378H98.8133V21.3415H106.309V19.2545H98.8133V17.4996H106.783V15.4125H98.8133V13.8036H105.099C105.117 13.8036 105.133 13.8016 105.156 13.7978H106.178V5.104H89.2003V5.98913C89.1925 6.05057 89.1866 6.08513 89.1866 6.12353V12.7821C89.1866 12.8186 89.1905 12.8532 89.1983 12.8916V13.7959H90.2773V13.8016H96.6847V15.4106H90.6592L90.808 14.7559H88.6265L87.2969 20.6062H89.4784L89.4803 20.6081ZM91.3387 7.16801H104.028V8.42178H91.3387V7.16801ZM91.3387 11.7146V10.4858H104.028V11.7146H91.3387Z" fill="black"/>
<path d="M49.6158 17.8852V12.7607H47.6321V17.8852C47.6321 19.0277 47.3853 20.1758 46.9016 21.3009C46.4179 22.4241 45.7561 23.4514 44.9336 24.3538L46.3847 25.7285C47.3853 24.6206 48.1823 23.3822 48.7522 22.0478C49.3259 20.7096 49.6158 19.308 49.6158 17.8852Z" fill="black"/>
<path d="M56.3509 12.7607H54.3672V25.5403H56.3509V12.7607Z" fill="black"/>
<path d="M44.8229 18.783C44.9678 18.3107 45.0403 17.8211 45.0403 17.3296C45.0403 15.9414 44.5468 14.4457 43.5716 12.8848L43.5305 12.8195L45.1127 6.51801C45.1441 6.39321 45.1617 6.29721 45.1617 6.23193C45.1617 6.01305 45.0795 5.80569 44.9189 5.6156C44.6898 5.34488 44.4215 5.2124 44.0964 5.2124H37.8477V25.7719H39.9763V7.30137H42.7648L41.3549 12.7619C41.3353 12.8214 41.3275 12.902 41.3275 13.0115C41.3275 13.2361 41.394 13.4492 41.5311 13.6662C41.8288 14.0483 42.1401 14.607 42.4476 15.3116C42.755 16.0182 42.9097 16.7133 42.9097 17.3795C42.9097 17.6483 42.8706 17.9267 42.7903 18.207C42.4632 19.167 41.6036 19.9062 40.2328 20.4131L40.9593 22.335C43.0037 21.6074 44.304 20.4131 44.821 18.783H44.8229Z" fill="black"/>
<path d="M56.5314 8.82859C55.658 7.72842 54.7455 6.45353 53.8153 5.03849C53.7252 4.86377 53.6058 4.74089 53.455 4.65449C53.3003 4.56809 53.1338 4.52393 52.9596 4.52393H51.0601C50.686 4.52393 50.4001 4.67369 50.1867 4.97897C49.2996 6.33833 48.391 7.59018 47.4863 8.69803C46.5816 9.80587 45.5848 10.8331 44.5195 11.7489L45.7767 13.2907C46.9066 12.3864 48.0072 11.2766 49.045 9.99019C50.0594 8.73451 50.9054 7.58634 51.5594 6.57641L51.6143 6.49193H52.376L52.4308 6.5745C54.5066 9.65035 56.4198 11.9102 58.1156 13.2926L59.3963 11.7508C58.3643 10.9118 57.3989 9.92875 56.5275 8.83051L56.5314 8.82859Z" fill="black"/>
<path d="M130 9.4043H114.418V11.4913H130V9.4043Z" fill="black"/>
<path d="M130 5.104H110.717L110.711 25.6635H112.84V7.16801H130V5.104Z" fill="black"/>
<path d="M119.388 25.6758V23.5907H117.612V15.5689H130V13.5029H114.418V15.5689H115.507V25.6623L119.388 25.6758Z" fill="black"/>
<path d="M125.297 21.71L128.289 25.6806L130.001 24.4402L127.028 20.4946L125.297 21.71Z" fill="black"/>
<path d="M116.094 25.6045L116.147 25.6794H119.644L125.297 21.7088L124.032 20.0308L116.094 25.6045Z" fill="black"/>
<path d="M129.999 18.4102L128.76 16.7129L125.762 18.8172L127.027 20.4953L129.999 18.4102Z" fill="black"/>
<path d="M125.762 18.8164L124.031 20.0318L125.296 21.7099L127.027 20.4945L125.762 18.8164Z" fill="black"/>
</g>
<defs>
<linearGradient id="paint0_linear_6728_3560" x1="2.31644" y1="2.41933" x2="23.4017" y2="27.8974" gradientUnits="userSpaceOnUse">
<stop stop-color="#01A9FF"/>
<stop offset="1" stop-color="#0160FF"/>
</linearGradient>
<clipPath id="clip0_6728_3560">
<rect width="130" height="29.6987" fill="white" transform="translate(0 0.30127)"/>
</clipPath>
</defs>
</svg>
